<?xml version="1.0"?>
<svg width="450" height="450" xmlns="http://www.w3.org/2000/svg" xmlns:svg="http://www.w3.org/2000/svg" version="1.1" xml:space="preserve">
 <desc>Created with Fabric.js 3.6.6</desc>

 <g class="layer">
  <title>Layer 1</title>
  <circle cx="223.5" cy="223.5" fill="none" id="svg_50" r="209.91" stroke="#191919" stroke-width="5" transform="matrix(1 0 0 1 0 0)"/>
  <g id="svg_1" transform="matrix(1 0 0 1 23.58 146.04)">
   <line fill="rgb(0,0,0)" fill-rule="nonzero" id="svg_2" stroke="#191919" stroke-dashoffset="0" stroke-miterlimit="4" stroke-width="5" x1="-4" x2="-4" y1="-12" y2="-12"/>
  </g>
  <g id="svg_3" transform="matrix(1 0 0 1 0 0) matrix(0.94 0 0 0.94 532.54 568.96)">
   <text fill="rgb(53,53,53)" fill-rule="nonzero" font-family="&#x27;Comic Sans MS&#x27;, &#x27;Comic Sans&#x27;, cursive, sans-serif" font-size="60" font-style="normal" font-weight="normal" id="svg_4" stroke="#191919" stroke-dashoffset="0" stroke-miterlimit="4" stroke-width="5" x="-401.06" xml:space="preserve" y="-227.66">
    <tspan font-style="normal" font-weight="normal" id="svg_5" stroke="#191919" stroke-width="5" x="-467.26" y="-208.81">Beer</tspan>
   </text>
  </g>
  <g id="svg_6" transform="matrix(1 0 0 1 0 0) matrix(1 0 0 1 668.86 567.83)">
   <text fill="rgb(53,53,53)" fill-rule="nonzero" font-family="&#x27;Comic Sans MS&#x27;, &#x27;Comic Sans&#x27;, cursive, sans-serif" font-size="60" font-style="normal" font-weight="normal" id="svg_7" stroke="#191919" stroke-dashoffset="0" stroke-miterlimit="4" stroke-width="5" x="-380" xml:space="preserve" y="-211">
    <tspan fill="rgb(53,53,53)" font-family="&#x27;Comic Sans MS&#x27;, &#x27;Comic Sans&#x27;, cursive, sans-serif" font-style="normal" font-weight="normal" id="svg_8" stroke="#191919" stroke-width="5" x="-446.31" y="-192.15">Click</tspan>
   </text>
  </g>
  <g id="svg_49">
   <g id="svg_9" transform="matrix(1.4228 0 0 1.11758 680.08 348.195)">
    <line fill="rgb(0,0,0)" fill-rule="nonzero" id="svg_10" stroke="#191919" stroke-dashoffset="0" stroke-miterlimit="4" stroke-width="5" x1="-422.92" x2="-422.92" y1="-230.74" y2="-230.74"/>
   </g>
   <g id="svg_11" transform="matrix(1.4228 0 0 1.11758 680.236 353.157)">
    <line fill="rgb(0,0,0)" fill-rule="nonzero" id="svg_12" stroke="#191919" stroke-dashoffset="0" stroke-miterlimit="4" stroke-width="5" x1="-422.92" x2="-422.92" y1="-230.74" y2="-230.74"/>
   </g>
   <g id="svg_13" transform="matrix(1.4228 0 0 1.11758 694.777 365.585)">
    <line fill="rgb(0,0,0)" fill-rule="nonzero" id="svg_14" stroke="#191919" stroke-dashoffset="0" stroke-miterlimit="4" stroke-width="5" x1="-422.92" x2="-422.92" y1="-230.74" y2="-230.74"/>
   </g>
   <g id="svg_15" transform="matrix(1.4228 0 0 1.11758 696.043 365.585)">
    <line fill="rgb(0,0,0)" fill-rule="nonzero" id="svg_16" stroke="#191919" stroke-dashoffset="0" stroke-miterlimit="4" stroke-width="5" x1="-422.92" x2="-422.92" y1="-230.74" y2="-230.74"/>
   </g>
   <g id="svg_17" transform="matrix(1.4228 0 0 1.11758 696.043 365.585)">
    <line fill="rgb(0,0,0)" fill-rule="nonzero" id="svg_18" stroke="#191919" stroke-dashoffset="0" stroke-miterlimit="4" stroke-width="5" x1="-422.92" x2="-422.92" y1="-230.74" y2="-230.74"/>
   </g>
   <g id="svg_19" transform="matrix(1.4228 0 0 1.11758 696.043 365.585)">
    <line fill="rgb(0,0,0)" fill-rule="nonzero" id="svg_20" stroke="#191919" stroke-dashoffset="0" stroke-miterlimit="4" stroke-width="5" x1="-422.92" x2="-422.92" y1="-230.74" y2="-230.74"/>
   </g>
   <g id="svg_21" transform="matrix(1.4228 0 0 1.11758 692.273 365.585)">
    <line fill="rgb(0,0,0)" fill-rule="nonzero" id="svg_22" stroke="#191919" stroke-dashoffset="0" stroke-miterlimit="4" stroke-width="5" x1="-422.92" x2="-422.92" y1="-230.74" y2="-230.74"/>
   </g>
   <g id="svg_23" transform="matrix(1.4228 0 0 1.11758 777.328 421.821)">
    <line fill="rgb(0,0,0)" fill-rule="nonzero" id="svg_24" stroke="#191919" stroke-dashoffset="0" stroke-miterlimit="4" stroke-width="5" x1="-422.92" x2="-422.92" y1="-230.74" y2="-230.74"/>
   </g>
   <g id="svg_25" transform="matrix(1.4228 0 0 1.11758 694.279 445.536)">
    <line fill="rgb(0,0,0)" fill-rule="nonzero" id="svg_26" stroke="#191919" stroke-dashoffset="0" stroke-miterlimit="4" stroke-width="5" x1="-422.92" x2="-422.92" y1="-230.74" y2="-230.74"/>
   </g>
   <g id="svg_27" transform="rotate(4.30199 177.145 242.541) matrix(0.402273 0.416934 -0.576229 0.52384 637.893 489.735)">
    <polygon fill="none" fill-rule="nonzero" id="svg_28" points="-851.038890838623,162.97013568878174 -801.038890838623,247.97013568878174 -901.038890838623,247.97013568878174 " stroke="#191919" stroke-dashoffset="0" stroke-miterlimit="4" stroke-width="5"/>
   </g>
   <g id="svg_29" transform="matrix(0 -0.782306 -1.05287 0 894.196 444.352)">
    <path d="m329.62,629.46l0,0c0,-32 25.95,-57.95 57.95,-57.95c32.01,0 57.96,25.95 57.96,57.95l-28.98,0c0,-16 -12.97,-28.97 -28.98,-28.97c-16,0 -28.97,12.97 -28.97,28.97l-28.98,0z" fill="none" fill-rule="nonzero" id="svg_30" stroke="#191919" stroke-dashoffset="0" stroke-miterlimit="4" stroke-width="5" transform="translate(-57.95 -28.98)"/>
   </g>
   <g id="svg_31" transform="matrix(0.3605 0 0 0.357626 643.106 313.885)">
    <circle cx="-1323.92" cy="-721.05" fill="none" fill-rule="nonzero" id="svg_32" r="40" stroke="#191919" stroke-dashoffset="0" stroke-miterlimit="4" stroke-width="5"/>
   </g>
   <g id="svg_33" transform="matrix(0.143661 0 0 0.156461 561.22 315.685)">
    <circle cx="-2972.9" cy="-1641.73" fill="none" fill-rule="nonzero" id="svg_34" r="40" stroke="#191919" stroke-dashoffset="0" stroke-miterlimit="4" stroke-width="5"/>
   </g>
   <g id="svg_35" transform="matrix(0.140917 0 0 0.145285 651.342 289.779)">
    <circle cx="-3274.15" cy="-1754.25" fill="none" fill-rule="nonzero" id="svg_36" r="40" stroke="#191919" stroke-dashoffset="0" stroke-miterlimit="4" stroke-width="5"/>
   </g>
   <g id="svg_37" transform="matrix(1.62199 0 0 -1.20699 759.728 433.947)">
    <line fill="none" fill-rule="nonzero" id="svg_38" stroke="#191919" stroke-dashoffset="0" stroke-miterlimit="4" stroke-width="5" x1="-371.2" x2="-370.76" y1="170.09" y2="257.2"/>
   </g>
   <g id="svg_39" transform="matrix(1.4228 0 0 1.11758 686.354 519.263)">
    <line fill="rgb(0,0,0)" fill-rule="nonzero" id="svg_40" stroke="#191919" stroke-dashoffset="0" stroke-miterlimit="4" stroke-width="4" x1="-389.56" x2="-405.66" y1="-238.46" y2="-224.8"/>
   </g>
   <g id="svg_41" transform="matrix(1.4228 0 0 1.11758 714.81 551.975)">
    <line fill="rgb(0,0,0)" fill-rule="nonzero" id="svg_42" stroke="#191919" stroke-dashoffset="0" stroke-miterlimit="4" stroke-width="4" x1="-389.56" x2="-405.66" y1="-238.46" y2="-224.8"/>
   </g>
   <g id="svg_43" transform="matrix(2.63217 0 0 2.06752 690.139 542.218)">
    <line fill="rgb(0,0,0)" fill-rule="nonzero" id="svg_44" stroke="#191919" stroke-dashoffset="0" stroke-miterlimit="4" stroke-width="4" x1="-206.88" x2="-222.98" y1="-132.04" y2="-118.38"/>
   </g>
   <g id="svg_45" transform="matrix(1.26629 0 0 1.017 821.819 360.388)">
    <path d="m-455.18,-253.56l84.38,0l0,0c11.05,0 20.01,9.28 20.01,20.73c0,11.45 -8.96,20.74 -20.01,20.74l-84.38,0l0,0c-11.05,0 -20.01,-9.29 -20.01,-20.74c0,-11.45 8.96,-20.73 20.01,-20.73z" fill="none" fill-rule="nonzero" id="svg_46" stroke="#191919" stroke-dashoffset="0" stroke-miterlimit="4" stroke-width="5" transform="translate(-62.2 -20.73)"/>
   </g>
   <g id="svg_47" transform="matrix(1.4228 0 0 1.11758 837.896 515.519)">
    <path d="m222.2,217.17q0.46,29.76 0.46,29.76l-70.23,-0.46" fill="none" fill-rule="nonzero" id="svg_48" stroke="#191919" stroke-dashoffset="0" stroke-miterlimit="4" stroke-width="5" transform="translate(-610.47 -462.79)"/>
   </g>
  </g>
  <rect fill="none" height="0" id="svg_60" stroke="#191919" transform="matrix(1 0 0 1 0 0)" width="0" x="-236.5" y="222"/>
 </g>
</svg>